CommonSerif-Regular.ufo
<glyph name="slash" format="2">
  <advance width="323"/>
  <unicode hex="002F"/>
  <outline>
    <contour>
      <point x="293" y="646" type="line"/>
      <point x="252" y="646" type="line"/>
      <point x="15" y="-59" type="line"/>
      <point x="56" y="-59" type="line"/>
    </contour>
  </outline>
</glyph>
<glyph name="R" format="2">
  <advance width="590"/>
  <unicode hex="0052"/>
  <anchor x="266" y="740" name="t.uni0302"/>
  <anchor x="274" y="-60" name="b.minus-60"/>
  <outline>
    <contour>
      <point x="19" y="-2" type="curve"/>
      <point x="56" y="-1"/>
      <point x="122" y="0"/>
      <point x="154" y="0" type="curve"/>
      <point x="154" y="645" type="line"/>
      <point x="124" y="645"/>
      <point x="59" y="646"/>
      <point x="19" y="647" type="curve"/>
      <point x="13" y="641"/>
      <point x="13" y="620"/>
      <point x="19" y="614" type="curve"/>
      <point x="89" y="611"/>
      <point x="106" y="604"/>
      <point x="106" y="527" type="curve" smooth="yes"/>
      <point x="106" y="120" type="line" smooth="yes"/>
      <point x="106" y="39"/>
      <point x="89" y="34"/>
      <point x="19" y="31" type="curve"/>
      <point x="13" y="25"/>
      <point x="13" y="4"/>
    </contour>
    <contour>
      <point x="149.5" y="0" type="line"/>
      <point x="187.5" y="0"/>
      <point x="235" y="-1"/>
      <point x="279" y="-2" type="curve"/>
      <point x="285" y="4"/>
      <point x="285" y="25"/>
      <point x="279" y="31" type="curve"/>
      <point x="209" y="34"/>
      <point x="192" y="39"/>
      <point x="192" y="122" type="curve" smooth="yes"/>
      <point x="192" y="291" type="line"/>
      <point x="276" y="291"/>
      <point x="295" y="276"/>
      <point x="309" y="253" type="curve" smooth="yes"/>
      <point x="416" y="79" type="line" smooth="yes"/>
      <point x="445" y="32"/>
      <point x="488" y="-10"/>
      <point x="548" y="-10" type="curve" smooth="yes"/>
      <point x="563" y="-10"/>
      <point x="580" y="-8"/>
      <point x="590" y="-3" type="curve"/>
      <point x="594" y="4"/>
      <point x="593" y="13"/>
      <point x="589" y="21" type="curve"/>
      <point x="544" y="21"/>
      <point x="519" y="55"/>
      <point x="493" y="98" type="curve" smooth="yes"/>
      <point x="367" y="308" type="line"/>
      <point x="410" y="322"/>
      <point x="500" y="374"/>
      <point x="500" y="479" type="curve" smooth="yes"/>
      <point x="500" y="615"/>
      <point x="390" y="652"/>
      <point x="274" y="652" type="curve" smooth="yes"/>
      <point x="227" y="652"/>
      <point x="185.5" y="645"/>
      <point x="149.5" y="645" type="curve"/>
    </contour>
    <contour>
      <point x="192" y="325" type="line"/>
      <point x="192" y="554" type="line" smooth="yes"/>
      <point x="192" y="583"/>
      <point x="204" y="618"/>
      <point x="275" y="618" type="curve" smooth="yes"/>
      <point x="336" y="618"/>
      <point x="408" y="596"/>
      <point x="408" y="478" type="curve" smooth="yes"/>
      <point x="408" y="353"/>
      <point x="337" y="325"/>
      <point x="240" y="325" type="curve" smooth="yes"/>
    </contour>
  </outline>
</glyph>
<glyph name="U" format="2">
  <advance width="661"/>
  <unicode hex="0055"/>
  <anchor x="346" y="740" name="t.uni0302"/>
  <anchor x="391" y="10" name="b.ogonek"/>
  <anchor x="344" y="-60" name="b.minus-60"/>
  <outline>
    <contour>
      <point x="172.5" y="523" type="line" smooth="yes"/>
      <point x="172.5" y="606"/>
      <point x="187.418" y="611"/>
      <point x="264" y="614" type="curve"/>
      <point x="270" y="620"/>
      <point x="270" y="641"/>
      <point x="264" y="647" type="curve"/>
      <point x="217" y="646"/>
      <point x="168" y="645"/>
      <point x="129" y="645" type="curve" smooth="yes"/>
      <point x="90" y="645"/>
      <point x="49" y="646"/>
      <point x="10" y="647" type="curve"/>
      <point x="4" y="641"/>
      <point x="4" y="620"/>
      <point x="10" y="614" type="curve"/>
      <point x="69.6104" y="611"/>
      <point x="86.5" y="606"/>
      <point x="86.5" y="523" type="curve" smooth="yes"/>
      <point x="86.5" y="233" type="line" smooth="yes"/>
      <point x="86.5" y="29"/>
      <point x="218.635" y="-10"/>
      <point x="320.74" y="-10" type="curve" smooth="yes"/>
      <point x="525.95" y="-10"/>
      <point x="575" y="117"/>
      <point x="575" y="295" type="curve" smooth="yes"/>
      <point x="575" y="523" type="line" smooth="yes"/>
      <point x="575" y="603"/>
      <point x="592" y="607"/>
      <point x="652" y="614" type="curve"/>
      <point x="658" y="620"/>
      <point x="658" y="641"/>
      <point x="652" y="647" type="curve"/>
      <point x="614" y="646"/>
      <point x="573" y="645"/>
      <point x="550" y="645" type="curve" smooth="yes"/>
      <point x="529" y="645"/>
      <point x="480" y="646"/>
      <point x="434" y="647" type="curve"/>
      <point x="428" y="641"/>
      <point x="428" y="620"/>
      <point x="434" y="614" type="curve"/>
      <point x="509" y="607"/>
      <point x="526" y="604"/>
      <point x="526" y="523" type="curve" smooth="yes"/>
      <point x="526" y="277" type="line" smooth="yes"/>
      <point x="526" y="165"/>
      <point x="511.021" y="31"/>
      <point x="342.26" y="31" type="curve" smooth="yes"/>
      <point x="200.46" y="31"/>
      <point x="172.5" y="148"/>
      <point x="172.5" y="266" type="curve" smooth="yes"/>
    </contour>
  </outline>
</glyph>
<glyph name="q" format="2">
  <advance width="503"/>
  <unicode hex="0071"/>
  <anchor x="238" y="500" name="t.uni0302"/>
  <anchor x="353" y="-60" name="b.minus-60"/>
  <outline>
    <contour>
      <point x="35" y="207" type="curve" smooth="yes"/>
      <point x="35" y="114"/>
      <point x="98" y="-10"/>
      <point x="242" y="-10" type="curve" smooth="yes"/>
      <point x="283" y="-10"/>
      <point x="300" y="-5"/>
      <point x="344" y="19" type="curve"/>
      <point x="364.79" y="19" type="line"/>
      <point x="364.79" y="63.0848" type="line"/>
      <point x="334.097" y="41.7854"/>
      <point x="307.653" y="34"/>
      <point x="266" y="34" type="curve" smooth="yes"/>
      <point x="208" y="34"/>
      <point x="121" y="76"/>
      <point x="121" y="227" type="curve" smooth="yes"/>
      <point x="121" y="331"/>
      <point x="163" y="405"/>
      <point x="243" y="405" type="curve" smooth="yes"/>
      <point x="284" y="405"/>
      <point x="308" y="391"/>
      <point x="346" y="342" type="curve"/>
      <point x="346" y="-120" type="line"/>
      <point x="426" y="-120" type="line"/>
      <point x="426" y="333" type="line" smooth="yes"/>
      <point x="426" y="361"/>
      <point x="426" y="389"/>
      <point x="430" y="417" type="curve"/>
      <point x="430" y="431"/>
      <point x="421" y="442"/>
      <point x="410" y="442" type="curve" smooth="yes"/>
      <point x="400" y="442"/>
      <point x="383" y="420"/>
      <point x="373" y="403" type="curve"/>
      <point x="328" y="427"/>
      <point x="299" y="439"/>
      <point x="247" y="439" type="curve" smooth="yes"/>
      <point x="125" y="439"/>
      <point x="35" y="339"/>
    </contour>
    <contour>
      <point x="274" y="-234" type="curve"/>
      <point x="307" y="-233"/>
      <point x="351" y="-232"/>
      <point x="391" y="-232" type="curve"/>
      <point x="391" y="-110" type="line"/>
      <point x="346" y="-110" type="line"/>
      <point x="346" y="-192"/>
      <point x="335" y="-197"/>
      <point x="274" y="-201" type="curve"/>
      <point x="268" y="-207"/>
      <point x="268" y="-228"/>
    </contour>
    <contour>
      <point x="381" y="-232" type="line"/>
      <point x="421" y="-232"/>
      <point x="465" y="-233"/>
      <point x="498" y="-234" type="curve"/>
      <point x="504" y="-228"/>
      <point x="504" y="-207"/>
      <point x="498" y="-201" type="curve"/>
      <point x="437" y="-197"/>
      <point x="426" y="-192"/>
      <point x="426" y="-110" type="curve"/>
      <point x="381" y="-110" type="line"/>
    </contour>
  </outline>
</glyph>
<glyph name="r" format="2">
  <advance width="376"/>
  <unicode hex="0072"/>
  <anchor x="196" y="500" name="t.uni0302"/>
  <anchor x="147" y="-60" name="b.minus-60"/>
  <outline>
    <contour>
      <point x="182" y="110" type="line"/>
      <point x="182" y="261" type="line" smooth="yes"/>
      <point x="182" y="309"/>
      <point x="226" y="377"/>
      <point x="252" y="377" type="curve" smooth="yes"/>
      <point x="261" y="377"/>
      <point x="270" y="375"/>
      <point x="278" y="364" type="curve" smooth="yes"/>
      <point x="285" y="354"/>
      <point x="297" y="341"/>
      <point x="314" y="341" type="curve" smooth="yes"/>
      <point x="338" y="341"/>
      <point x="361" y="366"/>
      <point x="361" y="391" type="curve" smooth="yes"/>
      <point x="361" y="410"/>
      <point x="343" y="439"/>
      <point x="301" y="439" type="curve" smooth="yes"/>
      <point x="254" y="439"/>
      <point x="213" y="395"/>
      <point x="190" y="356" type="curve"/>
      <point x="184" y="345"/>
      <point x="179.222" y="353.005"/>
      <point x="179" y="358" type="curve" smooth="yes"/>
      <point x="177.222" y="398.01"/>
      <point x="172.304" y="427.208"/>
      <point x="170" y="434" type="curve" smooth="yes"/>
      <point x="168.27" y="439.1"/>
      <point x="166" y="442"/>
      <point x="158" y="442" type="curve"/>
      <point x="130" y="431"/>
      <point x="104" y="422"/>
      <point x="35" y="413" type="curve"/>
      <point x="33" y="407"/>
      <point x="35" y="391"/>
      <point x="37" y="385" type="curve"/>
      <point x="91" y="380"/>
      <point x="102" y="375"/>
      <point x="102" y="317" type="curve" smooth="yes"/>
      <point x="102" y="110" type="line"/>
    </contour>
    <contour>
      <point x="30" y="-2" type="curve"/>
      <point x="63" y="-1"/>
      <point x="107" y="0"/>
      <point x="147" y="0" type="curve"/>
      <point x="147" y="122" type="line"/>
      <point x="102" y="122" type="line"/>
      <point x="102" y="40"/>
      <point x="91" y="35"/>
      <point x="30" y="31" type="curve"/>
      <point x="24" y="25"/>
      <point x="24" y="4"/>
    </contour>
    <contour>
      <point x="137" y="0" type="line"/>
      <point x="177" y="0"/>
      <point x="221" y="-1"/>
      <point x="254" y="-2" type="curve"/>
      <point x="260" y="4"/>
      <point x="260" y="25"/>
      <point x="254" y="31" type="curve"/>
      <point x="193" y="35"/>
      <point x="182" y="40"/>
      <point x="182" y="122" type="curve"/>
      <point x="137" y="122" type="line"/>
    </contour>
  </outline>
</glyph>
<glyph name="uni0222" format="2">
  <advance width="554"/>
  <unicode hex="0222"/>
  <outline>
    <contour>
      <point x="272" y="-12" type="curve" smooth="yes"/>
      <point x="410" y="-12"/>
      <point x="506" y="63"/>
      <point x="506" y="171" type="curve" smooth="yes"/>
      <point x="506" y="247"/>
      <point x="449" y="308"/>
      <point x="330" y="361" type="curve"/>
      <point x="405" y="386"/>
      <point x="476" y="473"/>
      <point x="476" y="540" type="curve" smooth="yes"/>
      <point x="476" y="626"/>
      <point x="389" y="691"/>
      <point x="274" y="691" type="curve"/>
      <point x="274" y="665" type="line"/>
      <point x="346" y="665"/>
      <point x="402" y="602"/>
      <point x="402" y="522" type="curve" smooth="yes"/>
      <point x="402" y="468"/>
      <point x="382" y="442"/>
      <point x="296" y="382" type="curve"/>
      <point x="192" y="431"/>
      <point x="144" y="476"/>
      <point x="144" y="524" type="curve" smooth="yes"/>
      <point x="144" y="579"/>
      <point x="196" y="632"/>
      <point x="249" y="632" type="curve"/>
      <point x="249" y="658" type="line"/>
      <point x="144" y="658"/>
      <point x="62" y="589"/>
      <point x="62" y="502" type="curve" smooth="yes"/>
      <point x="62" y="437"/>
      <point x="105" y="388"/>
      <point x="212" y="333" type="curve"/>
      <point x="125" y="309"/>
      <point x="47" y="224"/>
      <point x="47" y="156" type="curve" smooth="yes"/>
      <point x="47" y="52"/>
      <point x="133" y="-12"/>
    </contour>
    <contour>
      <point x="272" y="24" type="curve" smooth="yes"/>
      <point x="188" y="24"/>
      <point x="117" y="79"/>
      <point x="117" y="143" type="curve" smooth="yes"/>
      <point x="117" y="200"/>
      <point x="159" y="253"/>
      <point x="249" y="313" type="curve"/>
      <point x="378" y="255"/>
      <point x="424" y="209"/>
      <point x="424" y="140" type="curve" smooth="yes"/>
      <point x="424" y="68"/>
      <point x="367" y="24"/>
    </contour>
  </outline>
</glyph>
<glyph name="uni0287" format="2">
  <advance width="316"/>
  <unicode hex="0287"/>
  <anchor x="209" y="645" name="m.uni0302"/>
  <anchor x="196" y="-110" name="m.uni0316_2"/>
  <anchor x="410" y="16" name="b.uni0321_4"/>
  <anchor x="167" y="-3" name="m.uni0327_5"/>
  <outline>
    <contour>
      <point x="25" y="0" type="curve" smooth="yes"/>
      <point x="145" y="0" type="line"/>
      <point x="145" y="-39" type="line" smooth="yes"/>
      <point x="145" y="-104"/>
      <point x="141.4" y="-140"/>
      <point x="141" y="-144" type="curve"/>
      <point x="141" y="-150"/>
      <point x="144" y="-153"/>
      <point x="149" y="-153" type="curve"/>
      <point x="160.468" y="-145.824"/>
      <point x="209.322" y="-120.921"/>
      <point x="227" y="-116" type="curve"/>
      <point x="224" y="0" type="line"/>
      <point x="270" y="0" type="line"/>
      <point x="288" y="20" type="line"/>
      <point x="288" y="33" type="line"/>
      <point x="283" y="39" type="line"/>
      <point x="224" y="39" type="line"/>
      <point x="224" y="340" type="line" smooth="yes"/>
      <point x="224" y="411"/>
      <point x="193" y="439"/>
      <point x="147" y="439" type="curve" smooth="yes"/>
      <point x="101" y="439"/>
      <point x="51" y="417"/>
      <point x="12" y="373" type="curve"/>
      <point x="14" y="363"/>
      <point x="20" y="357"/>
      <point x="30" y="356" type="curve"/>
      <point x="56" y="376"/>
      <point x="86" y="384"/>
      <point x="112" y="384" type="curve" smooth="yes"/>
      <point x="139" y="384"/>
      <point x="145" y="354"/>
      <point x="145" y="292" type="curve" smooth="yes"/>
      <point x="145" y="39" type="line"/>
      <point x="41" y="39" type="line" smooth="yes"/>
      <point x="31" y="39"/>
      <point x="17" y="35"/>
      <point x="17" y="26" type="curve" smooth="yes"/>
      <point x="17" y="6" type="line" smooth="yes"/>
      <point x="17" y="2"/>
      <point x="20" y="0"/>
    </contour>
  </outline>
</glyph>
<glyph name="uni029A" format="2">
  <advance width="499"/>
  <unicode hex="029A"/>
  <anchor x="223" y="645" name="m.uni0302"/>
  <anchor x="210" y="-110" name="m.uni0316_2"/>
  <anchor x="424" y="16" name="b.uni0321_4"/>
  <anchor x="181" y="-3" name="m.uni0327_5"/>
  <outline>
    <contour>
      <point x="208" y="-9" type="curve" smooth="yes"/>
      <point x="362" y="-9"/>
      <point x="459" y="81"/>
      <point x="459" y="224" type="curve" smooth="yes"/>
      <point x="459" y="344"/>
      <point x="355" y="440"/>
      <point x="226" y="440" type="curve" smooth="yes"/>
      <point x="114" y="440"/>
      <point x="44" y="395"/>
      <point x="44" y="323" type="curve" smooth="yes"/>
      <point x="44" y="275"/>
      <point x="81" y="234"/>
      <point x="143" y="215" type="curve"/>
      <point x="79" y="195"/>
      <point x="44" y="161"/>
      <point x="44" y="119" type="curve" smooth="yes"/>
      <point x="44" y="40"/>
      <point x="107" y="-9"/>
    </contour>
    <contour>
      <point x="233" y="407" type="curve" smooth="yes"/>
      <point x="322" y="407"/>
      <point x="379" y="334"/>
      <point x="379" y="220" type="curve" smooth="yes"/>
      <point x="379" y="117"/>
      <point x="312.108" y="24"/>
      <point x="238" y="24" type="curve" smooth="yes"/>
      <point x="167" y="24"/>
      <point x="123" y="66"/>
      <point x="123" y="133" type="curve" smooth="yes"/>
      <point x="123" y="171"/>
      <point x="145.57" y="194"/>
      <point x="200" y="207" type="curve"/>
      <point x="233" y="196"/>
      <point x="251.715" y="188"/>
      <point x="270" y="188" type="curve" smooth="yes"/>
      <point x="296" y="188"/>
      <point x="309" y="197"/>
      <point x="309" y="216" type="curve" smooth="yes"/>
      <point x="309" y="235"/>
      <point x="294.923" y="243"/>
      <point x="266" y="243" type="curve" smooth="yes"/>
      <point x="231" y="243"/>
      <point x="221.412" y="234"/>
      <point x="200" y="227" type="curve"/>
      <point x="149" y="241"/>
      <point x="123" y="268"/>
      <point x="123" y="306" type="curve" smooth="yes"/>
      <point x="123" y="369"/>
      <point x="164" y="407"/>
    </contour>
  </outline>
</glyph>
<glyph name="uni02A2" format="2">
  <advance width="429"/>
  <unicode hex="02A2"/>
  <anchor x="209" y="645" name="m.uni0302"/>
  <anchor x="196" y="-110" name="m.uni0316_2"/>
  <anchor x="410" y="16" name="b.uni0321_4"/>
  <anchor x="167" y="-3" name="m.uni0327_5"/>
  <outline>
    <component base="uni0294" xScale="-1" xOffset="422"/>
    <contour>
      <point x="370" y="238" type="line"/>
      <point x="373" y="245"/>
      <point x="375" y="250"/>
      <point x="375" y="257" type="curve" smooth="yes"/>
      <point x="375" y="263"/>
      <point x="374" y="270"/>
      <point x="370" y="277" type="curve"/>
      <point x="71" y="277" type="line"/>
      <point x="67" y="271"/>
      <point x="65" y="265"/>
      <point x="65" y="257" type="curve" smooth="yes"/>
      <point x="65" y="251"/>
      <point x="66" y="245"/>
      <point x="70" y="238" type="curve"/>
    </contour>
  </outline>
</glyph>
<glyph name="uni02A8" format="2">
  <advance width="656"/>
  <unicode hex="02A8"/>
  <anchor x="209" y="645" name="m.uni0302"/>
  <anchor x="196" y="-110" name="m.uni0316_2"/>
  <anchor x="410" y="16" name="b.uni0321_4"/>
  <anchor x="167" y="-3" name="m.uni0327_5"/>
  <anchor x="452" y="500" name="t.uni0302"/>
  <anchor x="446" y="215" name="m.uni0334_6"/>
  <outline>
    <component base="t"/>
    <contour>
      <point x="375" y="87" type="line"/>
      <point x="349" y="120"/>
      <point x="333" y="169"/>
      <point x="333" y="230" type="curve" smooth="yes"/>
      <point x="333" y="340"/>
      <point x="381" y="406"/>
      <point x="447" y="406" type="curve" smooth="yes"/>
      <point x="506" y="406"/>
      <point x="514" y="371"/>
      <point x="518" y="336" type="curve" smooth="yes"/>
      <point x="521" y="309"/>
      <point x="535" y="300"/>
      <point x="556" y="300" type="curve" smooth="yes"/>
      <point x="577" y="300"/>
      <point x="605" y="313"/>
      <point x="605" y="344" type="curve" smooth="yes"/>
      <point x="605" y="399"/>
      <point x="548" y="439"/>
      <point x="452" y="439" type="curve" smooth="yes"/>
      <point x="353" y="439"/>
      <point x="247" y="350"/>
      <point x="247" y="208" type="curve" smooth="yes"/>
      <point x="247" y="124"/>
      <point x="277" y="58"/>
      <point x="332" y="21" type="curve"/>
    </contour>
    <contour>
      <point x="626" y="134" type="curve" smooth="yes"/>
      <point x="626" y="180"/>
      <point x="591" y="189"/>
      <point x="558" y="189" type="curve" smooth="yes"/>
      <point x="479" y="189"/>
      <point x="421" y="100"/>
      <point x="399" y="66" type="curve"/>
      <point x="390" y="71"/>
      <point x="382" y="79"/>
      <point x="375" y="87" type="curve"/>
      <point x="332" y="21" type="line"/>
      <point x="340" y="15"/>
      <point x="349" y="9"/>
      <point x="359" y="4" type="curve"/>
      <point x="339" y="-25"/>
      <point x="320" y="-57"/>
      <point x="299" y="-93" type="curve"/>
      <point x="305" y="-100"/>
      <point x="319" y="-105"/>
      <point x="331" y="-106" type="curve"/>
      <point x="349" y="-69"/>
      <point x="370" y="-37"/>
      <point x="393" y="-5" type="curve"/>
      <point x="405" y="-8"/>
      <point x="438" y="-10"/>
      <point x="451" y="-10" type="curve" smooth="yes"/>
      <point x="543" y="-10"/>
      <point x="626" y="62"/>
    </contour>
    <contour>
      <point x="582" y="129" type="curve" smooth="yes"/>
      <point x="582" y="84"/>
      <point x="529" y="41"/>
      <point x="473" y="41" type="curve" smooth="yes"/>
      <point x="459" y="41"/>
      <point x="437" y="45"/>
      <point x="428" y="51" type="curve"/>
      <point x="431" y="60"/>
      <point x="495" y="164"/>
      <point x="550" y="164" type="curve" smooth="yes"/>
      <point x="567" y="164"/>
      <point x="582" y="154"/>
    </contour>
  </outline>
</glyph>
<glyph name="uni02AF" format="2">
  <advance width="592"/>
  <unicode hex="02AF"/>
  <anchor x="278" y="-214" name="m.uni0302"/>
  <anchor x="318" y="542" name="m.uni0316_2"/>
  <outline>
    <contour>
      <point x="215.833" y="167" type="curve" smooth="yes"/>
      <point x="215.833" y="253.879" type="line" smooth="yes"/>
      <point x="215.833" y="375.676"/>
      <point x="184.637" y="442"/>
      <point x="114.375" y="442" type="curve" smooth="yes"/>
      <point x="81.2161" y="442"/>
      <point x="11" y="427"/>
      <point x="11" y="385.665" type="curve" smooth="yes"/>
      <point x="11" y="361"/>
      <point x="36" y="358"/>
      <point x="42.7667" y="358" type="curve" smooth="yes"/>
      <point x="62" y="358"/>
      <point x="72.1498" y="382.237"/>
      <point x="75.6722" y="393.685" type="curve" smooth="yes"/>
      <point x="80.1674" y="408.294"/>
      <point x="86" y="413"/>
      <point x="95.753" y="413" type="curve" smooth="yes"/>
      <point x="127.25" y="413"/>
      <point x="135.865" y="363.929"/>
      <point x="135.865" y="251.984" type="curve" smooth="yes"/>
      <point x="135.865" y="197" type="line" smooth="yes"/>
      <point x="135.865" y="88"/>
      <point x="146" y="-12"/>
      <point x="250" y="-12" type="curve" smooth="yes"/>
      <point x="289" y="-12"/>
      <point x="347" y="3"/>
      <point x="414" y="70" type="curve"/>
      <point x="414" y="0" type="line"/>
      <point x="494" y="0" type="line"/>
      <point x="494" y="307" type="line"/>
      <point x="414" y="307" type="line"/>
      <point x="414" y="96.764" type="line"/>
      <point x="422.411" y="116.149" type="line"/>
      <point x="374.411" y="69.149"/>
      <point x="323" y="35"/>
      <point x="284.234" y="35" type="curve" smooth="yes"/>
      <point x="232" y="35"/>
      <point x="215.833" y="97"/>
    </contour>
    <contour>
      <point x="342" y="431" type="curve"/>
      <point x="336" y="425"/>
      <point x="336" y="404"/>
      <point x="342" y="398" type="curve"/>
      <point x="403" y="394"/>
      <point x="414" y="389"/>
      <point x="414" y="307" type="curve"/>
      <point x="494" y="307" type="line"/>
      <point x="494" y="389"/>
      <point x="505" y="394"/>
      <point x="566" y="398" type="curve"/>
      <point x="572" y="404"/>
      <point x="572" y="425"/>
      <point x="566" y="431" type="curve"/>
      <point x="533" y="430"/>
      <point x="494" y="429"/>
      <point x="454" y="429" type="curve" smooth="yes"/>
      <point x="414" y="429"/>
      <point x="375" y="430"/>
    </contour>
    <contour>
      <point x="414" y="10" type="line"/>
      <point x="414" y="-20" type="line" smooth="yes"/>
      <point x="414" y="-178"/>
      <point x="434" y="-229"/>
      <point x="533" y="-229" type="curve" smooth="yes"/>
      <point x="562" y="-229"/>
      <point x="623" y="-214"/>
      <point x="623" y="-181" type="curve" smooth="yes"/>
      <point x="623" y="-158"/>
      <point x="615" y="-146"/>
      <point x="600" y="-146" type="curve" smooth="yes"/>
      <point x="582" y="-146"/>
      <point x="566.323" y="-165.057"/>
      <point x="563" y="-183" type="curve" smooth="yes"/>
      <point x="561.321" y="-192.065"/>
      <point x="552" y="-200"/>
      <point x="542" y="-200" type="curve" smooth="yes"/>
      <point x="511" y="-200"/>
      <point x="494" y="-161"/>
      <point x="494" y="-20" type="curve" smooth="yes"/>
      <point x="494" y="10" type="line"/>
    </contour>
  </outline>
</glyph>
<glyph name="circumflex" format="2">
  <advance width="350"/>
  <unicode hex="02C6"/>
  <anchor x="175" y="500" name="_t.uni0302"/>
  <outline>
    <contour>
      <point x="49" y="513" type="curve"/>
      <point x="69" y="500" type="line"/>
      <point x="103" y="525"/>
      <point x="143" y="558"/>
      <point x="175" y="590" type="curve"/>
      <point x="205" y="559"/>
      <point x="246" y="525"/>
      <point x="281" y="500" type="curve"/>
      <point x="301" y="513" type="line"/>
      <point x="265" y="553"/>
      <point x="228" y="596"/>
      <point x="199" y="643" type="curve"/>
      <point x="151" y="643" type="line"/>
      <point x="122" y="597"/>
      <point x="85" y="553"/>
    </contour>
  </outline>
</glyph>
<glyph name="dotaccent" format="2">
  <advance width="214"/>
  <unicode hex="02D9"/>
  <outline>
    <contour>
      <point x="60" y="547" type="curve" smooth="yes"/>
      <point x="60" y="521"/>
      <point x="81" y="500"/>
      <point x="107" y="500" type="curve" smooth="yes"/>
      <point x="133" y="500"/>
      <point x="154" y="521"/>
      <point x="154" y="547" type="curve" smooth="yes"/>
      <point x="154" y="573"/>
      <point x="133" y="594"/>
      <point x="107" y="594" type="curve" smooth="yes"/>
      <point x="81" y="594"/>
      <point x="60" y="573"/>
    </contour>
  </outline>
</glyph>
<glyph name="uni0345" format="2">
  <unicode hex="0345"/>
  <anchor x="-180" y="-60" name="_ypogegrammeni"/>
  <outline>
    <contour>
      <point x="-222" y="-75" type="line"/>
      <point x="-222" y="-157" type="line" smooth="yes"/>
      <point x="-222" y="-215"/>
      <point x="-183" y="-239"/>
      <point x="-135" y="-239" type="curve" smooth="yes"/>
      <point x="-110" y="-239"/>
      <point x="-64" y="-225"/>
      <point x="-49" y="-156" type="curve"/>
      <point x="-74" y="-148" type="line"/>
      <point x="-81" y="-175"/>
      <point x="-97" y="-199"/>
      <point x="-115" y="-199" type="curve" smooth="yes"/>
      <point x="-135" y="-199"/>
      <point x="-147" y="-176"/>
      <point x="-147" y="-121" type="curve" smooth="yes"/>
      <point x="-147" y="-69" type="line"/>
      <point x="-169" y="-62" type="line"/>
    </contour>
  </outline>
</glyph>
<glyph name="uni0362" format="2">
  <unicode hex="0362"/>
  <anchor x="-293" y="-60" name="_b.minus-60"/>
  <outline>
    <contour>
      <point x="-268" y="-119" type="line"/>
      <point x="-268" y="-149" type="line"/>
      <point x="193" y="-149" type="line"/>
      <point x="175" y="-169"/>
      <point x="153" y="-189"/>
      <point x="139" y="-221" type="curve"/>
      <point x="174" y="-221" type="line"/>
      <point x="202" y="-190"/>
      <point x="240" y="-158"/>
      <point x="278" y="-138" type="curve"/>
      <point x="278" y="-127" type="line"/>
      <point x="228" y="-109"/>
      <point x="187" y="-62"/>
      <point x="174" y="-46" type="curve"/>
      <point x="140" y="-46" type="line"/>
      <point x="154" y="-81"/>
      <point x="184" y="-107"/>
      <point x="193" y="-119" type="curve"/>
    </contour>
  </outline>
</glyph>
<glyph name="tonos" format="2">
  <advance width="205"/>
  <unicode hex="0384"/>
  <outline>
    <contour>
      <point x="54.5" y="500" type="curve" smooth="yes"/>
      <point x="58.5" y="500"/>
      <point x="63.4895" y="504.008"/>
      <point x="66.5" y="508" type="curve" smooth="yes"/>
      <point x="158.5" y="630" type="line" smooth="yes"/>
      <point x="162.355" y="635.112"/>
      <point x="164.5" y="643"/>
      <point x="164.5" y="648" type="curve" smooth="yes"/>
      <point x="164.5" y="668"/>
      <point x="142.5" y="683"/>
      <point x="122.5" y="683" type="curve" smooth="yes"/>
      <point x="109.5" y="683"/>
      <point x="98.5" y="677"/>
      <point x="94.5" y="666" type="curve" smooth="yes"/>
      <point x="42.5" y="523" type="line" smooth="yes"/>
      <point x="41.4193" y="520.028"/>
      <point x="40.5" y="516"/>
      <point x="40.5" y="513" type="curve" smooth="yes"/>
      <point x="40.5" y="506"/>
      <point x="46.5" y="500"/>
    </contour>
  </outline>
</glyph>
<glyph name="pi" format="2">
  <advance width="566"/>
  <unicode hex="03C0"/>
  <outline>
    <contour>
      <point x="41" y="24" type="curve" smooth="yes"/>
      <point x="41" y="0"/>
      <point x="58" y="-10"/>
      <point x="80" y="-10" type="curve" smooth="yes"/>
      <point x="178" y="-10"/>
      <point x="214" y="119"/>
      <point x="214" y="361" type="curve"/>
      <point x="332.791" y="361" type="line"/>
      <point x="313" y="92" type="line"/>
      <point x="313" y="22"/>
      <point x="352.998" y="-10"/>
      <point x="422.998" y="-10" type="curve" smooth="yes"/>
      <point x="469.998" y="-10"/>
      <point x="509.584" y="39.5841"/>
      <point x="532.584" y="70.5841" type="curve"/>
      <point x="529.584" y="80.5841"/>
      <point x="521.085" y="89"/>
      <point x="513.905" y="89" type="curve"/>
      <point x="494.027" y="62.301"/>
      <point x="465.938" y="43"/>
      <point x="446.962" y="43" type="curve" smooth="yes"/>
      <point x="423.962" y="43"/>
      <point x="415.764" y="64.0077"/>
      <point x="414.962" y="106" type="curve" smooth="yes"/>
      <point x="410.09" y="361" type="line"/>
      <point x="450" y="361" type="line" smooth="yes"/>
      <point x="493" y="361"/>
      <point x="525" y="381"/>
      <point x="542" y="417" type="curve"/>
      <point x="531" y="429" type="line"/>
      <point x="162" y="429" type="line" smooth="yes"/>
      <point x="68" y="429"/>
      <point x="32" y="350"/>
      <point x="24" y="290" type="curve"/>
      <point x="25" y="282"/>
      <point x="37" y="278"/>
      <point x="48" y="282" type="curve"/>
      <point x="66" y="339"/>
      <point x="94" y="361"/>
      <point x="144" y="361" type="curve" smooth="yes"/>
      <point x="162" y="361" type="line"/>
      <point x="162" y="89"/>
      <point x="124" y="76"/>
      <point x="82" y="66" type="curve" smooth="yes"/>
      <point x="56" y="60"/>
      <point x="41" y="42"/>
    </contour>
  </outline>
</glyph>
<glyph name="uni03D4" format="2">
  <advance width="552"/>
  <unicode hex="03D4"/>
  <outline>
    <contour>
      <point x="133" y="-2" type="curve"/>
      <point x="182" y="-1"/>
      <point x="218" y="0"/>
      <point x="273" y="0" type="curve" smooth="yes"/>
      <point x="327" y="0"/>
      <point x="362" y="-1"/>
      <point x="412" y="-2" type="curve"/>
      <point x="418" y="4"/>
      <point x="418" y="25"/>
      <point x="412" y="31" type="curve"/>
      <point x="332" y="34"/>
      <point x="315" y="39"/>
      <point x="315" y="122" type="curve" smooth="yes"/>
      <point x="315" y="331" type="line" smooth="yes"/>
      <point x="315" y="475"/>
      <point x="383" y="618"/>
      <point x="442" y="618" type="curve" smooth="yes"/>
      <point x="460" y="618"/>
      <point x="470" y="604"/>
      <point x="477" y="585" type="curve"/>
      <point x="483" y="566"/>
      <point x="500" y="561"/>
      <point x="513" y="561" type="curve" smooth="yes"/>
      <point x="534" y="561"/>
      <point x="548" y="579"/>
      <point x="548" y="599" type="curve" smooth="yes"/>
      <point x="548" y="634"/>
      <point x="516" y="658"/>
      <point x="467" y="658" type="curve" smooth="yes"/>
      <point x="347" y="658"/>
      <point x="298" y="478"/>
      <point x="289" y="419" type="curve"/>
      <point x="286" y="419" type="line"/>
      <point x="275" y="545"/>
      <point x="216" y="658"/>
      <point x="110" y="658" type="curve" smooth="yes"/>
      <point x="68" y="658"/>
      <point x="28" y="639"/>
      <point x="5" y="610" type="curve"/>
      <point x="8" y="603"/>
      <point x="14" y="598"/>
      <point x="22" y="594" type="curve"/>
      <point x="44" y="612"/>
      <point x="60" y="616"/>
      <point x="99" y="616" type="curve" smooth="yes"/>
      <point x="217.127" y="616"/>
      <point x="230" y="376.058"/>
      <point x="230" y="300" type="curve" smooth="yes"/>
      <point x="230" y="122" type="line" smooth="yes"/>
      <point x="230" y="39"/>
      <point x="213" y="34"/>
      <point x="133" y="31" type="curve"/>
      <point x="127" y="25"/>
      <point x="127" y="4"/>
    </contour>
    <contour>
      <point x="328" y="759" type="curve" smooth="yes"/>
      <point x="328" y="733"/>
      <point x="350" y="711"/>
      <point x="376" y="711" type="curve" smooth="yes"/>
      <point x="402" y="711"/>
      <point x="424" y="733"/>
      <point x="424" y="759" type="curve" smooth="yes"/>
      <point x="424" y="785"/>
      <point x="402" y="807"/>
      <point x="376" y="807" type="curve" smooth="yes"/>
      <point x="350" y="807"/>
      <point x="328" y="785"/>
    </contour>
    <contour>
      <point x="139" y="759" type="curve" smooth="yes"/>
      <point x="139" y="733"/>
      <point x="161" y="711"/>
      <point x="187" y="711" type="curve" smooth="yes"/>
      <point x="213" y="711"/>
      <point x="235" y="733"/>
      <point x="235" y="759" type="curve" smooth="yes"/>
      <point x="235" y="785"/>
      <point x="213" y="807"/>
      <point x="187" y="807" type="curve" smooth="yes"/>
      <point x="161" y="807"/>
      <point x="139" y="785"/>
    </contour>
  </outline>
</glyph>
<glyph name="uni0418" format="2">
  <advance width="704"/>
  <unicode hex="0418"/>
  <anchor x="341" y="740" name="t.uni0302"/>
  <outline>
    <contour>
      <point x="19" y="-2" type="curve"/>
      <point x="64" y="-1"/>
      <point x="113" y="0"/>
      <point x="149" y="0" type="curve" smooth="yes"/>
      <point x="185" y="0"/>
      <point x="233" y="-1"/>
      <point x="278" y="-2" type="curve"/>
      <point x="284" y="4"/>
      <point x="284" y="25"/>
      <point x="278" y="31" type="curve"/>
      <point x="223" y="33"/>
      <point x="194" y="48"/>
      <point x="194" y="90" type="curve"/>
      <point x="513" y="485" type="line"/>
      <point x="513" y="122" type="line" smooth="yes"/>
      <point x="513" y="39"/>
      <point x="496" y="34"/>
      <point x="426" y="31" type="curve"/>
      <point x="420" y="25"/>
      <point x="420" y="4"/>
      <point x="426" y="-2" type="curve"/>
      <point x="471" y="-1"/>
      <point x="520" y="0"/>
      <point x="556" y="0" type="curve" smooth="yes"/>
      <point x="592" y="0"/>
      <point x="640" y="-1"/>
      <point x="685" y="-2" type="curve"/>
      <point x="691" y="4"/>
      <point x="691" y="25"/>
      <point x="685" y="31" type="curve"/>
      <point x="615" y="34"/>
      <point x="598" y="39"/>
      <point x="598" y="122" type="curve" smooth="yes"/>
      <point x="598" y="523" type="line" smooth="yes"/>
      <point x="598" y="606"/>
      <point x="615" y="611"/>
      <point x="685" y="614" type="curve"/>
      <point x="691" y="620"/>
      <point x="691" y="641"/>
      <point x="685" y="647" type="curve"/>
      <point x="641" y="646"/>
      <point x="594" y="645"/>
      <point x="555" y="645" type="curve" smooth="yes"/>
      <point x="522" y="645"/>
      <point x="473" y="646"/>
      <point x="426" y="647" type="curve"/>
      <point x="420" y="641"/>
      <point x="420" y="620"/>
      <point x="426" y="614" type="curve"/>
      <point x="480" y="612"/>
      <point x="510" y="592"/>
      <point x="510" y="552" type="curve"/>
      <point x="191" y="156" type="line"/>
      <point x="191" y="523" type="line" smooth="yes"/>
      <point x="191" y="606"/>
      <point x="208" y="611"/>
      <point x="278" y="614" type="curve"/>
      <point x="284" y="620"/>
      <point x="284" y="641"/>
      <point x="278" y="647" type="curve"/>
      <point x="234" y="646"/>
      <point x="187" y="645"/>
      <point x="148" y="645" type="curve" smooth="yes"/>
      <point x="115" y="645"/>
      <point x="66" y="646"/>
      <point x="19" y="647" type="curve"/>
      <point x="13" y="641"/>
      <point x="13" y="620"/>
      <point x="19" y="614" type="curve"/>
      <point x="89" y="611"/>
      <point x="106" y="606"/>
      <point x="106" y="523" type="curve" smooth="yes"/>
      <point x="106" y="122" type="line" smooth="yes"/>
      <point x="106" y="39"/>
      <point x="89" y="34"/>
      <point x="19" y="31" type="curve"/>
      <point x="13" y="25"/>
      <point x="13" y="4"/>
    </contour>
  </outline>
</glyph>
<glyph name="uni0427" format="2">
  <advance width="644"/>
  <unicode hex="0427"/>
  <anchor x="322" y="740" name="t.uni0302"/>
  <outline>
    <contour>
      <point x="102" y="523" type="curve" smooth="yes"/>
      <point x="102" y="428" type="line" smooth="yes"/>
      <point x="102" y="329"/>
      <point x="143" y="250"/>
      <point x="257" y="250" type="curve" smooth="yes"/>
      <point x="314" y="250"/>
      <point x="381" y="266"/>
      <point x="453" y="315" type="curve"/>
      <point x="453" y="122" type="line" smooth="yes"/>
      <point x="453" y="39"/>
      <point x="436" y="34"/>
      <point x="366" y="31" type="curve"/>
      <point x="360" y="25"/>
      <point x="360" y="4"/>
      <point x="366" y="-2" type="curve"/>
      <point x="405" y="-1"/>
      <point x="460" y="0"/>
      <point x="496" y="0" type="curve" smooth="yes"/>
      <point x="532" y="0"/>
      <point x="586" y="-1"/>
      <point x="625" y="-2" type="curve"/>
      <point x="631" y="4"/>
      <point x="631" y="25"/>
      <point x="625" y="31" type="curve"/>
      <point x="555" y="34"/>
      <point x="538" y="39"/>
      <point x="538" y="122" type="curve" smooth="yes"/>
      <point x="538" y="523" type="line" smooth="yes"/>
      <point x="538" y="606"/>
      <point x="555" y="611"/>
      <point x="625" y="614" type="curve"/>
      <point x="631" y="620"/>
      <point x="631" y="641"/>
      <point x="625" y="647" type="curve"/>
      <point x="587" y="646"/>
      <point x="532" y="645"/>
      <point x="495" y="645" type="curve" smooth="yes"/>
      <point x="459" y="645"/>
      <point x="404" y="646"/>
      <point x="366" y="647" type="curve"/>
      <point x="360" y="641"/>
      <point x="360" y="620"/>
      <point x="366" y="614" type="curve"/>
      <point x="436" y="611"/>
      <point x="453" y="606"/>
      <point x="453" y="523" type="curve" smooth="yes"/>
      <point x="453" y="353" type="line"/>
      <point x="390" y="312"/>
      <point x="328" y="308"/>
      <point x="299" y="308" type="curve" smooth="yes"/>
      <point x="227" y="308"/>
      <point x="187" y="335"/>
      <point x="187" y="417" type="curve" smooth="yes"/>
      <point x="187" y="523" type="line" smooth="yes"/>
      <point x="187" y="606"/>
      <point x="204" y="611"/>
      <point x="274" y="614" type="curve"/>
      <point x="280" y="620"/>
      <point x="280" y="641"/>
      <point x="274" y="647" type="curve"/>
      <point x="235" y="646"/>
      <point x="180" y="645"/>
      <point x="144" y="645" type="curve" smooth="yes"/>
      <point x="108" y="645"/>
      <point x="55" y="646"/>
      <point x="15" y="647" type="curve"/>
      <point x="9" y="641"/>
      <point x="9" y="620"/>
      <point x="15" y="614" type="curve"/>
      <point x="85" y="611"/>
      <point x="102" y="606"/>
    </contour>
  </outline>
</glyph>
<glyph name="uni0431" format="2">
  <advance width="489"/>
  <unicode hex="0431"/>
  <outline>
    <contour>
      <point x="257" y="439" type="curve" smooth="yes"/>
      <point x="179" y="439"/>
      <point x="109" y="398"/>
      <point x="80" y="335" type="curve"/>
      <point x="78" y="337" type="line"/>
      <point x="90" y="495"/>
      <point x="122.988" y="530.11"/>
      <point x="275" y="547" type="curve" smooth="yes"/>
      <point x="383.988" y="559.11"/>
      <point x="430" y="602"/>
      <point x="438" y="698" type="curve"/>
      <point x="430" y="702"/>
      <point x="423" y="702"/>
      <point x="416" y="698" type="curve"/>
      <point x="409" y="658"/>
      <point x="375" y="641"/>
      <point x="271" y="624" type="curve" smooth="yes"/>
      <point x="103" y="597"/>
      <point x="34" y="490"/>
      <point x="34" y="257" type="curve" smooth="yes"/>
      <point x="34" y="100"/>
      <point x="119" y="-10"/>
      <point x="249" y="-10" type="curve" smooth="yes"/>
      <point x="368" y="-10"/>
      <point x="456" y="83"/>
      <point x="456" y="218" type="curve" smooth="yes"/>
      <point x="456" y="349"/>
      <point x="375" y="439"/>
    </contour>
    <contour>
      <point x="120" y="232" type="curve" smooth="yes"/>
      <point x="120" y="330"/>
      <point x="169" y="404"/>
      <point x="241" y="404" type="curve" smooth="yes"/>
      <point x="317" y="404"/>
      <point x="370" y="322"/>
      <point x="370" y="201" type="curve" smooth="yes"/>
      <point x="370" y="92"/>
      <point x="327" y="25"/>
      <point x="262" y="25" type="curve" smooth="yes"/>
      <point x="186" y="25"/>
      <point x="120" y="119"/>
    </contour>
  </outline>
</glyph>
<glyph name="uni0469" format="2">
  <advance width="917"/>
  <unicode hex="0469"/>
  <outline>
    <contour>
      <point x="469" y="257" type="line"/>
      <point x="176" y="257" type="line"/>
      <point x="176" y="223" type="line"/>
      <point x="448" y="223" type="line"/>
    </contour>
    <contour>
      <point x="30" y="-2" type="curve"/>
      <point x="70" y="-1"/>
      <point x="110" y="0"/>
      <point x="142" y="0" type="curve" smooth="yes"/>
      <point x="174" y="0"/>
      <point x="213" y="-1"/>
      <point x="249" y="-2" type="curve"/>
      <point x="255" y="4"/>
      <point x="255" y="25"/>
      <point x="249" y="31" type="curve"/>
      <point x="188" y="35"/>
      <point x="181" y="39"/>
      <point x="181" y="122" type="curve" smooth="yes"/>
      <point x="181" y="307" type="line" smooth="yes"/>
      <point x="181" y="390"/>
      <point x="188" y="393"/>
      <point x="249" y="398" type="curve"/>
      <point x="255" y="404"/>
      <point x="255" y="425"/>
      <point x="249" y="431" type="curve"/>
      <point x="211" y="430"/>
      <point x="173" y="429"/>
      <point x="141" y="429" type="curve" smooth="yes"/>
      <point x="111" y="429"/>
      <point x="70" y="430"/>
      <point x="30" y="431" type="curve"/>
      <point x="24" y="425"/>
      <point x="24" y="404"/>
      <point x="30" y="398" type="curve"/>
      <point x="91" y="394"/>
      <point x="102" y="390"/>
      <point x="102" y="307" type="curve" smooth="yes"/>
      <point x="102" y="122" type="line" smooth="yes"/>
      <point x="102" y="39"/>
      <point x="91" y="36"/>
      <point x="30" y="31" type="curve"/>
      <point x="24" y="25"/>
      <point x="24" y="4"/>
    </contour>
    <contour>
      <point x="765" y="65" type="line" smooth="yes"/>
      <point x="768.023" y="60.3152"/>
      <point x="769.6" y="55.9807"/>
      <point x="769.6" y="52.1518" type="curve" smooth="yes"/>
      <point x="769.6" y="43.023"/>
      <point x="760.249" y="36.5225"/>
      <point x="737" y="33" type="curve" smooth="yes"/>
      <point x="721.5" y="31" type="line"/>
      <point x="716.472" y="20.9702"/>
      <point x="716.472" y="8.02128"/>
      <point x="721.5" y="-2" type="curve"/>
      <point x="728.7" y="-1.8"/>
      <point x="791" y="0"/>
      <point x="819" y="0" type="curve" smooth="yes"/>
      <point x="849" y="0"/>
      <point x="897.4" y="-1.8"/>
      <point x="903" y="-2" type="curve"/>
      <point x="908" y="8.02128"/>
      <point x="908" y="20.9702"/>
      <point x="903" y="31" type="curve"/>
      <point x="879" y="34"/>
      <point x="858" y="47"/>
      <point x="836" y="82" type="curve" smooth="yes"/>
      <point x="619" y="417" type="line" smooth="yes"/>
      <point x="606" y="438"/>
      <point x="593" y="442"/>
      <point x="581" y="442" type="curve" smooth="yes"/>
      <point x="574" y="442"/>
      <point x="561" y="439"/>
      <point x="548" y="417" type="curve" smooth="yes"/>
      <point x="350" y="88" type="line" smooth="yes"/>
      <point x="331" y="56"/>
      <point x="300" y="34"/>
      <point x="274" y="31" type="curve"/>
      <point x="269" y="20.876"/>
      <point x="269" y="7.5701"/>
      <point x="274" y="-2" type="curve"/>
      <point x="278.7" y="-1.8"/>
      <point x="319" y="0"/>
      <point x="338" y="0" type="curve" smooth="yes"/>
      <point x="357" y="0"/>
      <point x="414.8" y="-1.8"/>
      <point x="421.5" y="-2" type="curve"/>
      <point x="426.466" y="7.5701"/>
      <point x="426.466" y="20.876"/>
      <point x="421.5" y="31" type="curve"/>
      <point x="411" y="33" type="line"/>
      <point x="392.943" y="37.3337"/>
      <point x="379.581" y="44.2758"/>
      <point x="379.581" y="57.9714" type="curve" smooth="yes"/>
      <point x="379.581" y="63.2373"/>
      <point x="381.557" y="69.5016"/>
      <point x="386" y="77" type="curve" smooth="yes"/>
      <point x="555" y="361" type="line" smooth="yes"/>
      <point x="561" y="371"/>
      <point x="567" y="372"/>
      <point x="574" y="361" type="curve" smooth="yes"/>
    </contour>
    <contour>
      <point x="535" y="0" type="line"/>
      <point x="610" y="0" type="line"/>
      <point x="610" y="75" type="line" smooth="yes"/>
      <point x="610" y="124.368"/>
      <point x="625.646" y="180.958"/>
      <point x="684.668" y="223.643" type="curve"/>
      <point x="675.421" y="247.728" type="line"/>
      <point x="606.638" y="211.224"/>
      <point x="584.31" y="171.977"/>
      <point x="572" y="144" type="curve"/>
      <point x="561.991" y="171.802"/>
      <point x="537.142" y="216.918"/>
      <point x="463.069" y="251.842" type="curve"/>
      <point x="453.19" y="227.422" type="line"/>
      <point x="519.475" y="183.694"/>
      <point x="535" y="126.362"/>
      <point x="535" y="75" type="curve" smooth="yes"/>
    </contour>
  </outline>
</glyph>
<glyph name="uni04C7" format="2">
  <advance width="702"/>
  <unicode hex="04C7"/>
  <outline>
    <contour>
      <point x="511" y="71" type="line" smooth="yes"/>
      <point x="511" y="-98"/>
      <point x="444" y="-164"/>
      <point x="369" y="-164" type="curve" smooth="yes"/>
      <point x="307.823" y="-164"/>
      <point x="238" y="-134.327"/>
      <point x="238" y="-63" type="curve"/>
      <point x="214" y="-63" type="line"/>
      <point x="214" y="-215" type="line"/>
      <point x="237" y="-215" type="line"/>
      <point x="237" y="-212"/>
      <point x="237.391" y="-197.928"/>
      <point x="238" y="-187" type="curve" smooth="yes"/>
      <point x="238.667" y="-175.031"/>
      <point x="244.098" y="-167"/>
      <point x="257" y="-167" type="curve" smooth="yes"/>
      <point x="272" y="-167"/>
      <point x="294" y="-193"/>
      <point x="376" y="-193" type="curve" smooth="yes"/>
      <point x="502" y="-193"/>
      <point x="597" y="-75"/>
      <point x="597" y="72" type="curve" smooth="yes"/>
      <point x="597" y="200" type="line"/>
      <point x="511" y="200" type="line"/>
    </contour>
    <contour>
      <point x="19" y="-2" type="curve"/>
      <point x="63" y="-1"/>
      <point x="111" y="0"/>
      <point x="149" y="0" type="curve" smooth="yes"/>
      <point x="185" y="0"/>
      <point x="234" y="-1"/>
      <point x="278" y="-2" type="curve"/>
      <point x="284" y="4"/>
      <point x="284" y="25"/>
      <point x="278" y="31" type="curve"/>
      <point x="208" y="34"/>
      <point x="192" y="39"/>
      <point x="192" y="122" type="curve" smooth="yes"/>
      <point x="192" y="321" type="line"/>
      <point x="511" y="321" type="line"/>
      <point x="511" y="122" type="line"/>
      <point x="597" y="122" type="line"/>
      <point x="597" y="523" type="line" smooth="yes"/>
      <point x="597" y="606"/>
      <point x="613" y="611"/>
      <point x="683" y="614" type="curve"/>
      <point x="689" y="620"/>
      <point x="689" y="641"/>
      <point x="683" y="647" type="curve"/>
      <point x="642" y="646"/>
      <point x="591" y="645"/>
      <point x="553" y="645" type="curve" smooth="yes"/>
      <point x="516" y="645"/>
      <point x="468" y="646"/>
      <point x="424" y="647" type="curve"/>
      <point x="418" y="641"/>
      <point x="418" y="620"/>
      <point x="424" y="614" type="curve"/>
      <point x="494" y="611"/>
      <point x="511" y="606"/>
      <point x="511" y="523" type="curve" smooth="yes"/>
      <point x="511" y="363" type="line"/>
      <point x="192" y="363" type="line"/>
      <point x="192" y="523" type="line" smooth="yes"/>
      <point x="192" y="606"/>
      <point x="208" y="611"/>
      <point x="278" y="614" type="curve"/>
      <point x="284" y="620"/>
      <point x="284" y="641"/>
      <point x="278" y="647" type="curve"/>
      <point x="240" y="646"/>
      <point x="199" y="645"/>
      <point x="148" y="645" type="curve" smooth="yes"/>
      <point x="98" y="645"/>
      <point x="57" y="646"/>
      <point x="19" y="647" type="curve"/>
      <point x="13" y="641"/>
      <point x="13" y="620"/>
      <point x="19" y="614" type="curve"/>
      <point x="89" y="611"/>
      <point x="106" y="606"/>
      <point x="106" y="523" type="curve" smooth="yes"/>
      <point x="106" y="122" type="line" smooth="yes"/>
      <point x="106" y="39"/>
      <point x="89" y="34"/>
      <point x="19" y="31" type="curve"/>
      <point x="13" y="25"/>
      <point x="13" y="4"/>
    </contour>
  </outline>
</glyph>
<glyph name="uni04F6" format="2">
  <advance width="523"/>
  <unicode hex="04F6"/>
  <outline>
    <contour>
      <point x="95" y="-2" type="line" smooth="yes"/>
      <point x="198" y="-2"/>
      <point x="238" y="-57"/>
      <point x="247" y="-141" type="curve"/>
      <point x="277" y="-141" type="line"/>
      <point x="270" y="7" type="line" smooth="yes"/>
      <point x="269" y="21"/>
      <point x="261" y="30"/>
      <point x="248" y="31" type="curve"/>
      <point x="230" y="33" type="line" smooth="yes"/>
      <point x="195" y="37"/>
      <point x="193" y="46"/>
      <point x="193" y="77" type="curve" smooth="yes"/>
      <point x="193" y="574" type="line" smooth="yes"/>
      <point x="193" y="600"/>
      <point x="208" y="605"/>
      <point x="231" y="605" type="curve" smooth="yes"/>
      <point x="362" y="605" type="line" smooth="yes"/>
      <point x="432" y="605"/>
      <point x="461" y="552"/>
      <point x="477" y="480" type="curve"/>
      <point x="509" y="484" type="line"/>
      <point x="488" y="645" type="line"/>
      <point x="150" y="645" type="line" smooth="yes"/>
      <point x="136" y="645"/>
      <point x="16" y="646"/>
      <point x="16" y="646" type="curve"/>
      <point x="14" y="645" type="line"/>
      <point x="14" y="621" type="line" smooth="yes"/>
      <point x="14" y="617"/>
      <point x="17" y="614"/>
      <point x="21" y="614" type="curve"/>
      <point x="53" y="611" type="line" smooth="yes"/>
      <point x="97" y="607"/>
      <point x="108" y="602"/>
      <point x="108" y="567" type="curve" smooth="yes"/>
      <point x="108" y="80" type="line" smooth="yes"/>
      <point x="108" y="49"/>
      <point x="92.0559" y="38.506"/>
      <point x="50" y="34" type="curve" smooth="yes"/>
      <point x="22" y="31" type="line"/>
      <point x="18" y="31"/>
      <point x="14" y="28"/>
      <point x="14" y="23" type="curve" smooth="yes"/>
      <point x="14" y="0" type="line"/>
      <point x="16" y="-2" type="line"/>
    </contour>
  </outline>
</glyph>
<glyph name="uni05BD" format="2">
  <unicode hex="05BD"/>
  <anchor x="187" y="0" name="_m.uni0316_2"/>
  <outline>
    <contour>
      <point x="145" y="-65" type="line"/>
      <point x="145" y="-203" type="line"/>
      <point x="182" y="-203" type="line"/>
      <point x="182" y="-65" type="line"/>
    </contour>
  </outline>
</glyph>
<glyph name="uni1D51" format="2">
  <advance width="339"/>
  <unicode hex="1D51"/>
  <outline>
    <contour>
      <point x="28.126" y="364.823" type="curve"/>
      <point x="46.612" y="365.439"/>
      <point x="71.26" y="366.056"/>
      <point x="95.908" y="366.056" type="curve" smooth="yes"/>
      <point x="120.556" y="366.056"/>
      <point x="139.658" y="365.439"/>
      <point x="158.144" y="364.823" type="curve"/>
      <point x="161.841" y="368.52"/>
      <point x="161.841" y="381.461"/>
      <point x="158.144" y="385.158" type="curve"/>
      <point x="126.718" y="388.239"/>
      <point x="120.556" y="390.704"/>
      <point x="120.556" y="441.232" type="curve"/>
      <point x="71.26" y="441.232" type="line"/>
      <point x="71.26" y="390.704"/>
      <point x="65.098" y="388.239"/>
      <point x="28.126" y="385.158" type="curve"/>
      <point x="24.4288" y="381.461"/>
      <point x="24.4288" y="368.52"/>
    </contour>
    <contour>
      <point x="71.2599" y="441.232" type="line"/>
      <point x="120.556" y="441.232" type="line"/>
      <point x="120.556" y="573.099" type="line"/>
      <point x="71.2599" y="560.775" type="line"/>
    </contour>
    <contour>
      <point x="166.155" y="278.555" type="curve" smooth="yes"/>
      <point x="154.479" y="278.555"/>
      <point x="146.436" y="268.904"/>
      <point x="146.436" y="255.14" type="curve" smooth="yes"/>
      <point x="146.436" y="240.473"/>
      <point x="161.646" y="228.643"/>
      <point x="180.327" y="228.643" type="curve" smooth="yes"/>
      <point x="293.708" y="228.643"/>
      <point x="294.941" y="354.964"/>
      <point x="294.941" y="441.232" type="curve"/>
      <point x="245.645" y="441.232" type="line"/>
      <point x="245.645" y="408.573"/>
      <point x="248.109" y="348.802"/>
      <point x="248.109" y="322.305" type="curve" smooth="yes"/>
      <point x="248.109" y="282.869"/>
      <point x="241.947" y="255.756"/>
      <point x="212.37" y="255.756" type="curve" smooth="yes"/>
      <point x="187.972" y="255.756"/>
      <point x="188.676" y="278.555"/>
    </contour>
    <contour>
      <point x="71.2599" y="560.775" type="curve"/>
      <point x="120.556" y="573.099" type="line"/>
      <point x="120.556" y="593.882"/>
      <point x="116.859" y="626.092"/>
      <point x="113.162" y="633.486" type="curve" smooth="yes"/>
      <point x="111.627" y="636.556"/>
      <point x="109.358" y="638.416"/>
      <point x="105.767" y="638.416" type="curve"/>
      <point x="82.8846" y="629.426"/>
      <point x="64.0982" y="624.997"/>
      <point x="29.9745" y="620.546" type="curve"/>
      <point x="28.9596" y="617.501"/>
      <point x="29.6384" y="607.998"/>
      <point x="31.2069" y="603.293" type="curve"/>
      <point x="66.5844" y="600.017"/>
      <point x="71.2599" y="594.509"/>
    </contour>
    <contour>
      <point x="245.645" y="441.232" type="line"/>
      <point x="294.941" y="441.232" type="line"/>
      <point x="294.941" y="533.046" type="line" smooth="yes"/>
      <point x="294.941" y="606.648"/>
      <point x="275.173" y="636.567"/>
      <point x="226.542" y="636.567" type="curve" smooth="yes"/>
      <point x="192.197" y="636.567"/>
      <point x="151.841" y="607.998"/>
      <point x="113.162" y="573.099" type="curve"/>
      <point x="120.556" y="557.694" type="line"/>
      <point x="155.575" y="589.686"/>
      <point x="179.038" y="604.525"/>
      <point x="201.605" y="604.525" type="curve" smooth="yes"/>
      <point x="231.082" y="604.525"/>
      <point x="245.645" y="579.209"/>
      <point x="245.645" y="534.894" type="curve" smooth="yes"/>
    </contour>
  </outline>
</glyph>
<glyph name="uni2074" format="2">
  <advance width="297"/>
  <unicode hex="2074"/>
  <outline>
    <contour>
      <point x="222" y="538.657" type="curve" smooth="yes"/>
      <point x="222" y="563" type="line"/>
      <point x="272" y="563" type="line"/>
      <point x="276.867" y="565.906"/>
      <point x="284.449" y="580.001"/>
      <point x="284.402" y="588.804" type="curve" smooth="yes"/>
      <point x="284.379" y="593.005"/>
      <point x="282.62" y="596"/>
      <point x="278" y="596" type="curve" smooth="yes"/>
      <point x="222" y="596" type="line"/>
      <point x="222" y="720.463" type="line" smooth="yes"/>
      <point x="222" y="729.463"/>
      <point x="222.821" y="766.61"/>
      <point x="226.018" y="780" type="curve"/>
      <point x="215.907" y="786.002" type="line"/>
      <point x="187.491" y="785.923" type="line"/>
      <point x="180.915" y="785.812"/>
      <point x="173.554" y="784.398"/>
      <point x="169.643" y="780.181" type="curve" smooth="yes"/>
      <point x="166.992" y="777.323" type="line" smooth="yes"/>
      <point x="140.646" y="748.915"/>
      <point x="58.3337" y="643.807"/>
      <point x="36.5698" y="595.934" type="curve" smooth="yes"/>
      <point x="32.0457" y="585.983" type="line"/>
      <point x="31.8799" y="573.65"/>
      <point x="38.8543" y="563"/>
      <point x="51" y="563" type="curve" smooth="yes"/>
      <point x="170" y="563" type="line"/>
      <point x="170" y="538.657" type="line" smooth="yes"/>
      <point x="170" y="497.071"/>
      <point x="157" y="494.029"/>
      <point x="117" y="492" type="curve"/>
      <point x="112" y="484"/>
      <point x="113" y="469"/>
      <point x="117" y="463" type="curve"/>
      <point x="143" y="464"/>
      <point x="166" y="464"/>
      <point x="191" y="464" type="curve" smooth="yes"/>
      <point x="205" y="464" type="line" smooth="yes"/>
      <point x="235" y="464"/>
      <point x="243" y="464"/>
      <point x="273" y="463" type="curve"/>
      <point x="277" y="470"/>
      <point x="277" y="484"/>
      <point x="273" y="492" type="curve"/>
      <point x="239" y="494.029"/>
      <point x="222" y="497.072"/>
    </contour>
    <contour>
      <point x="170" y="736" type="curve"/>
      <point x="170" y="596" type="line"/>
      <point x="72" y="596" type="line"/>
      <point x="79" y="614"/>
      <point x="131" y="687"/>
    </contour>
  </outline>
</glyph>
<glyph name="uni2172" format="2">
  <advance width="702"/>
  <unicode hex="2172"/>
  <outline>
    <contour>
      <point x="80" y="542" type="curve" smooth="yes"/>
      <point x="80" y="516"/>
      <point x="104" y="490"/>
      <point x="128" y="490" type="curve" smooth="yes"/>
      <point x="156" y="490"/>
      <point x="180" y="517"/>
      <point x="180" y="538" type="curve" smooth="yes"/>
      <point x="180" y="562"/>
      <point x="159" y="590"/>
      <point x="132" y="590" type="curve" smooth="yes"/>
      <point x="108" y="590"/>
      <point x="80" y="566"/>
    </contour>
    <contour>
      <point x="171" y="307" type="line" smooth="yes"/>
      <point x="171" y="390"/>
      <point x="182" y="393"/>
      <point x="243" y="398" type="curve"/>
      <point x="249" y="404"/>
      <point x="249" y="425"/>
      <point x="243" y="431" type="curve"/>
      <point x="209" y="430"/>
      <point x="175" y="429"/>
      <point x="131" y="429" type="curve" smooth="yes"/>
      <point x="88" y="429"/>
      <point x="52" y="430"/>
      <point x="19" y="431" type="curve"/>
      <point x="13" y="425"/>
      <point x="13" y="404"/>
      <point x="19" y="398" type="curve"/>
      <point x="80" y="394"/>
      <point x="91" y="390"/>
      <point x="91" y="307" type="curve" smooth="yes"/>
      <point x="91" y="122" type="line" smooth="yes"/>
      <point x="91" y="39"/>
      <point x="80" y="36"/>
      <point x="19" y="31" type="curve"/>
      <point x="13" y="25"/>
      <point x="13" y="4"/>
      <point x="19" y="-2" type="curve"/>
      <point x="52" y="-1"/>
      <point x="88" y="0"/>
      <point x="132" y="0" type="curve" smooth="yes"/>
      <point x="175" y="0"/>
      <point x="211" y="-1"/>
      <point x="243" y="-2" type="curve"/>
      <point x="249" y="4"/>
      <point x="249" y="25"/>
      <point x="243" y="31" type="curve"/>
      <point x="182" y="35"/>
      <point x="171" y="39"/>
      <point x="171" y="122" type="curve" smooth="yes"/>
    </contour>
    <contour>
      <point x="300" y="542" type="curve" smooth="yes"/>
      <point x="300" y="516"/>
      <point x="324" y="490"/>
      <point x="348" y="490" type="curve" smooth="yes"/>
      <point x="376" y="490"/>
      <point x="400" y="517"/>
      <point x="400" y="538" type="curve" smooth="yes"/>
      <point x="400" y="562"/>
      <point x="379" y="590"/>
      <point x="352" y="590" type="curve" smooth="yes"/>
      <point x="328" y="590"/>
      <point x="300" y="566"/>
    </contour>
    <contour>
      <point x="391" y="307" type="line" smooth="yes"/>
      <point x="391" y="390"/>
      <point x="402" y="393"/>
      <point x="463" y="398" type="curve"/>
      <point x="469" y="404"/>
      <point x="469" y="425"/>
      <point x="463" y="431" type="curve"/>
      <point x="429" y="430"/>
      <point x="395" y="429"/>
      <point x="351" y="429" type="curve" smooth="yes"/>
      <point x="308" y="429"/>
      <point x="272" y="430"/>
      <point x="239" y="431" type="curve"/>
      <point x="233" y="425"/>
      <point x="233" y="404"/>
      <point x="239" y="398" type="curve"/>
      <point x="300" y="394"/>
      <point x="311" y="390"/>
      <point x="311" y="307" type="curve" smooth="yes"/>
      <point x="311" y="122" type="line" smooth="yes"/>
      <point x="311" y="39"/>
      <point x="300" y="36"/>
      <point x="239" y="31" type="curve"/>
      <point x="233" y="25"/>
      <point x="233" y="4"/>
      <point x="239" y="-2" type="curve"/>
      <point x="272" y="-1"/>
      <point x="308" y="0"/>
      <point x="352" y="0" type="curve" smooth="yes"/>
      <point x="395" y="0"/>
      <point x="431" y="-1"/>
      <point x="463" y="-2" type="curve"/>
      <point x="469" y="4"/>
      <point x="469" y="25"/>
      <point x="463" y="31" type="curve"/>
      <point x="402" y="35"/>
      <point x="391" y="39"/>
      <point x="391" y="122" type="curve" smooth="yes"/>
    </contour>
    <contour>
      <point x="520" y="542" type="curve" smooth="yes"/>
      <point x="520" y="516"/>
      <point x="544" y="490"/>
      <point x="568" y="490" type="curve" smooth="yes"/>
      <point x="596" y="490"/>
      <point x="620" y="517"/>
      <point x="620" y="538" type="curve" smooth="yes"/>
      <point x="620" y="562"/>
      <point x="599" y="590"/>
      <point x="572" y="590" type="curve" smooth="yes"/>
      <point x="548" y="590"/>
      <point x="520" y="566"/>
    </contour>
    <contour>
      <point x="611" y="307" type="line" smooth="yes"/>
      <point x="611" y="390"/>
      <point x="622" y="393"/>
      <point x="683" y="398" type="curve"/>
      <point x="689" y="404"/>
      <point x="689" y="425"/>
      <point x="683" y="431" type="curve"/>
      <point x="649" y="430"/>
      <point x="615" y="429"/>
      <point x="571" y="429" type="curve" smooth="yes"/>
      <point x="528" y="429"/>
      <point x="492" y="430"/>
      <point x="459" y="431" type="curve"/>
      <point x="453" y="425"/>
      <point x="453" y="404"/>
      <point x="459" y="398" type="curve"/>
      <point x="520" y="394"/>
      <point x="531" y="390"/>
      <point x="531" y="307" type="curve" smooth="yes"/>
      <point x="531" y="122" type="line" smooth="yes"/>
      <point x="531" y="39"/>
      <point x="520" y="36"/>
      <point x="459" y="31" type="curve"/>
      <point x="453" y="25"/>
      <point x="453" y="4"/>
      <point x="459" y="-2" type="curve"/>
      <point x="492" y="-1"/>
      <point x="528" y="0"/>
      <point x="572" y="0" type="curve" smooth="yes"/>
      <point x="615" y="0"/>
      <point x="651" y="-1"/>
      <point x="683" y="-2" type="curve"/>
      <point x="689" y="4"/>
      <point x="689" y="25"/>
      <point x="683" y="31" type="curve"/>
      <point x="622" y="35"/>
      <point x="611" y="39"/>
      <point x="611" y="122" type="curve" smooth="yes"/>
    </contour>
  </outline>
</glyph>
<glyph name="uni2695" format="2">
  <advance width="467"/>
  <unicode hex="2695"/>
  <outline>
    <contour>
      <point x="189" y="263" type="curve"/>
      <point x="187" y="308" type="line"/>
      <point x="172" y="304"/>
      <point x="144" y="299"/>
      <point x="141" y="299" type="curve" smooth="yes"/>
      <point x="113" y="299"/>
      <point x="99" y="312"/>
      <point x="99" y="337" type="curve" smooth="yes"/>
      <point x="99" y="393"/>
      <point x="228" y="407"/>
      <point x="267" y="407" type="curve" smooth="yes"/>
      <point x="319" y="407"/>
      <point x="323" y="396"/>
      <point x="357" y="396" type="curve" smooth="yes"/>
      <point x="371" y="396"/>
      <point x="383" y="398"/>
      <point x="396" y="405" type="curve"/>
      <point x="390" y="408" type="line"/>
      <point x="396" y="406" type="line"/>
      <point x="404" y="403" type="line"/>
      <point x="418" y="393" type="line"/>
      <point x="416" y="402" type="line"/>
      <point x="421" y="407" type="line"/>
      <point x="408" y="407" type="line"/>
      <point x="399" y="408" type="line"/>
      <point x="390" y="410" type="line"/>
      <point x="389" y="409" type="line"/>
      <point x="379" y="415" type="line"/>
      <point x="403" y="411" type="line"/>
      <point x="405" y="413"/>
      <point x="407" y="415"/>
      <point x="407" y="420" type="curve" smooth="yes"/>
      <point x="407" y="430"/>
      <point x="387" y="442"/>
      <point x="376" y="445" type="curve"/>
      <point x="362" y="448"/>
      <point x="365" y="466"/>
      <point x="345" y="466" type="curve" smooth="yes"/>
      <point x="325" y="466"/>
      <point x="269.997" y="459.046"/>
      <point x="223" y="456" type="curve" smooth="yes"/>
      <point x="161.997" y="452.046"/>
      <point x="41" y="426"/>
      <point x="41" y="339" type="curve" smooth="yes"/>
      <point x="41" y="303"/>
      <point x="58" y="255"/>
      <point x="125" y="255" type="curve" smooth="yes"/>
      <point x="142" y="255"/>
      <point x="164" y="257"/>
    </contour>
    <contour>
      <point x="203" y="15" type="curve"/>
      <point x="201" y="47" type="line"/>
      <point x="153" y="48"/>
      <point x="131" y="62"/>
      <point x="131" y="87" type="curve" smooth="yes"/>
      <point x="131" y="127"/>
      <point x="194" y="131"/>
      <point x="231" y="131" type="curve" smooth="yes"/>
      <point x="285" y="131"/>
      <point x="378" y="150"/>
      <point x="378" y="220" type="curve" smooth="yes"/>
      <point x="378" y="296"/>
      <point x="321" y="308"/>
      <point x="262" y="312" type="curve"/>
      <point x="261" y="267" type="line"/>
      <point x="300" y="266"/>
      <point x="326" y="260"/>
      <point x="326" y="229" type="curve" smooth="yes"/>
      <point x="326" y="179"/>
      <point x="268" y="179"/>
      <point x="226" y="179" type="curve" smooth="yes"/>
      <point x="181" y="179"/>
      <point x="81" y="175"/>
      <point x="81" y="84" type="curve" smooth="yes"/>
      <point x="81" y="44"/>
      <point x="112" y="7"/>
      <point x="156" y="7" type="curve" smooth="yes"/>
      <point x="168" y="7"/>
      <point x="185" y="10"/>
    </contour>
    <contour>
      <point x="199" y="186" type="line"/>
      <point x="213" y="186"/>
      <point x="234" y="187"/>
      <point x="253" y="187" type="curve"/>
      <point x="256" y="398" type="line"/>
      <point x="233" y="397"/>
      <point x="211" y="393"/>
      <point x="189" y="388" type="curve"/>
    </contour>
    <contour>
      <point x="235" y="-102" type="curve" smooth="yes"/>
      <point x="305" y="-78"/>
      <point x="352" y="-44"/>
      <point x="352" y="-4" type="curve" smooth="yes"/>
      <point x="352" y="36"/>
      <point x="317" y="57"/>
      <point x="285" y="57" type="curve" smooth="yes"/>
      <point x="278" y="57"/>
      <point x="266" y="55"/>
      <point x="258" y="52" type="curve"/>
      <point x="257" y="19" type="line"/>
      <point x="264" y="21"/>
      <point x="274" y="25"/>
      <point x="283" y="25" type="curve" smooth="yes"/>
      <point x="290" y="25"/>
      <point x="315" y="23"/>
      <point x="315" y="-1" type="curve" smooth="yes"/>
      <point x="315" y="-30"/>
      <point x="258" y="-57"/>
      <point x="234" y="-66" type="curve" smooth="yes"/>
      <point x="214" y="-74"/>
      <point x="191" y="-89"/>
      <point x="170" y="-107" type="curve" smooth="yes"/>
      <point x="151" y="-124"/>
      <point x="127" y="-131"/>
      <point x="127" y="-138" type="curve" smooth="yes"/>
      <point x="127" y="-142"/>
      <point x="132" y="-144"/>
      <point x="138" y="-144" type="curve" smooth="yes"/>
      <point x="148" y="-144"/>
      <point x="164" y="-140"/>
      <point x="171" y="-136" type="curve"/>
      <point x="198" y="-123"/>
      <point x="210" y="-110"/>
    </contour>
    <contour>
      <point x="258" y="469" type="curve"/>
      <point x="259" y="477"/>
      <point x="260" y="497"/>
      <point x="260" y="517" type="curve" smooth="yes"/>
      <point x="260" y="560"/>
      <point x="252" y="583"/>
      <point x="218" y="583" type="curve" smooth="yes"/>
      <point x="191" y="583"/>
      <point x="179" y="554"/>
      <point x="179" y="531" type="curve" smooth="yes"/>
      <point x="179" y="521"/>
      <point x="184" y="473"/>
      <point x="186" y="462" type="curve"/>
      <point x="209" y="466"/>
      <point x="234" y="469"/>
    </contour>
    <contour>
      <point x="214" y="-67" type="line"/>
      <point x="252" y="-51" type="line"/>
      <point x="252" y="125" type="line"/>
      <point x="203" y="122" type="line"/>
    </contour>
    <contour>
      <point x="254" y="-103" type="line"/>
      <point x="236" y="-110"/>
      <point x="225" y="-115"/>
      <point x="215" y="-119" type="curve"/>
      <point x="216" y="-160" type="line"/>
      <point x="216" y="-173"/>
      <point x="222" y="-181"/>
      <point x="234" y="-181" type="curve" smooth="yes"/>
      <point x="245" y="-181"/>
      <point x="255" y="-170"/>
      <point x="255" y="-149" type="curve" smooth="yes"/>
      <point x="255" y="-147" type="line"/>
    </contour>
    <contour>
      <point x="342" y="451" type="curve" smooth="yes"/>
      <point x="342" y="453"/>
      <point x="344" y="455"/>
      <point x="346" y="455" type="curve" smooth="yes"/>
      <point x="349" y="455"/>
      <point x="351" y="453"/>
      <point x="351" y="451" type="curve" smooth="yes"/>
      <point x="351" y="448"/>
      <point x="349" y="446"/>
      <point x="346" y="446" type="curve" smooth="yes"/>
      <point x="344" y="446"/>
      <point x="342" y="448"/>
    </contour>
  </outline>
</glyph>
<glyph name="Odieresis.alt" format="2">
  <advance width="701"/>
  <anchor x="343" y="894" name="m.uni0302"/>
  <outline>
    <contour>
      <point x="665" y="329" type="curve" smooth="yes"/>
      <point x="665" y="536"/>
      <point x="522" y="658"/>
      <point x="343" y="658" type="curve" smooth="yes"/>
      <point x="246" y="658"/>
      <point x="169" y="620"/>
      <point x="117" y="557" type="curve" smooth="yes"/>
      <point x="64" y="494"/>
      <point x="36" y="407"/>
      <point x="36" y="310" type="curve" smooth="yes"/>
      <point x="36" y="113"/>
      <point x="179" y="-10"/>
      <point x="349" y="-10" type="curve" smooth="yes"/>
      <point x="446" y="-10"/>
      <point x="526" y="27"/>
      <point x="581" y="88" type="curve" smooth="yes"/>
      <point x="589" y="97"/>
      <point x="596" y="106"/>
      <point x="603" y="116" type="curve" smooth="yes"/>
      <point x="643" y="173"/>
      <point x="665" y="245"/>
    </contour>
    <contour>
      <point x="330" y="622" type="curve" smooth="yes"/>
      <point x="462" y="622"/>
      <point x="569" y="512"/>
      <point x="569" y="310" type="curve" smooth="yes"/>
      <point x="569" y="131"/>
      <point x="483" y="26"/>
      <point x="369" y="26" type="curve" smooth="yes"/>
      <point x="247" y="26"/>
      <point x="132" y="135"/>
      <point x="132" y="327" type="curve" smooth="yes"/>
      <point x="132" y="537"/>
      <point x="231" y="622"/>
    </contour>
    <contour>
      <point x="505" y="706" type="curve" smooth="yes"/>
      <point x="505" y="680"/>
      <point x="527" y="658"/>
      <point x="553" y="658" type="curve" smooth="yes"/>
      <point x="579" y="658"/>
      <point x="601" y="680"/>
      <point x="601" y="706" type="curve" smooth="yes"/>
      <point x="601" y="732"/>
      <point x="579" y="754"/>
      <point x="553" y="754" type="curve" smooth="yes"/>
      <point x="527" y="754"/>
      <point x="505" y="732"/>
    </contour>
    <contour>
      <point x="96" y="706" type="curve" smooth="yes"/>
      <point x="96" y="680"/>
      <point x="118" y="658"/>
      <point x="144" y="658" type="curve" smooth="yes"/>
      <point x="170" y="658"/>
      <point x="192" y="680"/>
      <point x="192" y="706" type="curve" smooth="yes"/>
      <point x="192" y="732"/>
      <point x="170" y="754"/>
      <point x="144" y="754" type="curve" smooth="yes"/>
      <point x="118" y="754"/>
      <point x="96" y="732"/>
    </contour>
  </outline>
</glyph>
<glyph name="r.sc" format="2">
  <advance width="475"/>
  <anchor x="241" y="685" name="m.uni0302"/>
  <anchor x="248" y="-110" name="m.uni0316_2"/>
  <anchor x="149" y="-3" name="m.uni0327_5"/>
  <outline>
    <contour>
      <point x="19" y="-2" type="curve"/>
      <point x="52" y="-1"/>
      <point x="88" y="0"/>
      <point x="132" y="0" type="curve" smooth="yes"/>
      <point x="175" y="0"/>
      <point x="210" y="-1"/>
      <point x="243" y="-2" type="curve"/>
      <point x="249" y="4"/>
      <point x="249" y="25"/>
      <point x="243" y="31" type="curve"/>
      <point x="182" y="35"/>
      <point x="171" y="39"/>
      <point x="171" y="122" type="curve" smooth="yes"/>
      <point x="171.057" y="460.056" type="line"/>
      <point x="142.771" y="459.732"/>
      <point x="64.3561" y="460.866"/>
      <point x="19" y="462" type="curve"/>
      <point x="13" y="456"/>
      <point x="13" y="435"/>
      <point x="19" y="429" type="curve"/>
      <point x="80" y="425"/>
      <point x="91" y="421"/>
      <point x="91" y="338" type="curve" smooth="yes"/>
      <point x="91" y="122" type="line" smooth="yes"/>
      <point x="91" y="39"/>
      <point x="80" y="36"/>
      <point x="19" y="31" type="curve"/>
      <point x="13" y="25"/>
      <point x="13" y="4"/>
    </contour>
    <contour>
      <point x="171" y="320.388" type="line"/>
      <point x="171" y="368" type="line" smooth="yes"/>
      <point x="171" y="421"/>
      <point x="181" y="431"/>
      <point x="237" y="431" type="curve" smooth="yes"/>
      <point x="307" y="431"/>
      <point x="327" y="406"/>
      <point x="327" y="346" type="curve" smooth="yes"/>
      <point x="327" y="263.788"/>
      <point x="300.857" y="238"/>
      <point x="215" y="238" type="curve" smooth="yes"/>
      <point x="156" y="238" type="line"/>
      <point x="156" y="209" type="line"/>
      <point x="226" y="209" type="line" smooth="yes"/>
      <point x="254.609" y="209"/>
      <point x="270.511" y="194.879"/>
      <point x="291" y="139" type="curve" smooth="yes"/>
      <point x="313" y="79" type="line" smooth="yes"/>
      <point x="335.765" y="16.9134"/>
      <point x="370" y="-7"/>
      <point x="413" y="-7" type="curve" smooth="yes"/>
      <point x="428" y="-7"/>
      <point x="459" y="-4"/>
      <point x="476" y="0" type="curve"/>
      <point x="479" y="10"/>
      <point x="477" y="20"/>
      <point x="470" y="28" type="curve"/>
      <point x="434" y="28"/>
      <point x="415.093" y="34.0358"/>
      <point x="395" y="86" type="curve" smooth="yes"/>
      <point x="366" y="161" type="line" smooth="yes"/>
      <point x="357.264" y="183.592"/>
      <point x="346.196" y="204.804"/>
      <point x="329" y="222" type="curve"/>
      <point x="329" y="224" type="line"/>
      <point x="363" y="236"/>
      <point x="414" y="277"/>
      <point x="414" y="346" type="curve" smooth="yes"/>
      <point x="414" y="449.991"/>
      <point x="325.846" y="464"/>
      <point x="243" y="464" type="curve" smooth="yes"/>
      <point x="205.645" y="464"/>
      <point x="168.361" y="460"/>
      <point x="131" y="460" type="curve"/>
      <point x="130.981" y="320.388" type="line"/>
    </contour>
  </outline>
</glyph>
